<svg viewBox="0 0 166 148" version="1.1" xmlns="http://www.w3.org/2000/svg" xmlns:xlink="http://www.w3.org/1999/xlink" overflow="visible" id="ldfp6s4">
   <desc>Engraved by Verovio 6.3.0-425dd7b</desc>
   <defs>
      <g id="E062-ldfp6s4">
         <path transform="scale(1,-1)" d="M582 -120c0 32 26 58 58 58s58 -26 58 -58s-26 -58 -58 -58s-58 26 -58 58zM582 120c0 32 26 58 58 58s58 -26 58 -58s-26 -58 -58 -58s-58 26 -58 58zM158 96c51 0 73 -14 88 -49l16 -39c0 -17 -2 -30 -7 -40c-3 -11 -10 -21 -19 -31c-17 -18 -49 -43 -84 -43 c-55 0 -77 13 -112 44c-24 21 -35 55 -35 100c0 46 14 81 32 112c30 52 71 79 137 93l36 6l26 2c154 0 235 -68 274 -182c11 -32 18 -68 18 -107c0 -103 -26 -182 -68 -250c-89 -145 -234 -230 -412 -288l-30 -5c-9 0 -14 3 -14 8c3 10 5 11 10 16c35 15 70 30 96 44l78 43 c96 57 162 136 197 258c9 33 17 60 22 100c3 22 5 35 6 39c-7 69 -16 115 -23 140s-4 22 -16 40c-8 12 -19 23 -31 34c-24 21 -62 44 -118 44c-48 0 -84 -8 -113 -28c-28 -19 -42 -44 -42 -73v-16c2 -5 3 -9 4 -11c24 22 52 39 84 39z" />
      </g>
      <g id="E0A2-ldfp6s4">
         <path transform="scale(1,-1)" d="M198 133c102 0 207 -45 207 -133c0 -92 -118 -133 -227 -133c-101 0 -178 46 -178 133c0 88 93 133 198 133zM293 -21c0 14 -3 29 -8 44c-7 20 -18 38 -33 54c-20 21 -43 31 -68 31l-20 -2c-15 -5 -27 -14 -36 -28c-4 -9 -6 -17 -8 -24s-3 -16 -3 -27c0 -15 3 -34 9 -57 s18 -41 34 -55c15 -15 36 -23 62 -23c4 0 10 1 18 2c19 5 32 15 40 30s13 34 13 55z" />
      </g>
   </defs>
   <style type="text/css">#ldfp6s4 g.ending, #ldfp6s4 g.fing, #ldfp6s4 g.reh, #ldfp6s4 g.tempo {font-weight:bold;}#ldfp6s4 g.dir, #ldfp6s4 g.dynam, #ldfp6s4 g.mNum {font-style:italic;}#ldfp6s4 g.label {font-weight:normal;}#ldfp6s4 ellipse, #ldfp6s4 path, #ldfp6s4 polygon, #ldfp6s4 polyline, #ldfp6s4 rect {stroke:currentColor}#ldfp6s4 g.cursor {fill:dodgerblue; color:dodgerblue;}#ldfp6s4 g.cursor.chord {fill:limegreen; color:limegreen;}</style>
   <svg class="definition-scale" color="black" font-family="Times, serif" viewBox="0 0 1660 1480">
      <g class="page-margin" transform="translate(100, 200)">
         <g id="mm71od5" class="mdiv pageMilestone" />
         <g id="n3bo9on" class="score pageMilestone" />
         <g id="k1qkt1h7" class="system">
            <g id="a1xc9kz3" class="section systemMilestone" />
            <g id="bhp7da4" class="measure">
               <g id="k1kdt1pl" class="staff">
                  <path d="M0 180 L1369 180" stroke-width="13" />
                  <path d="M0 360 L1369 360" stroke-width="13" />
                  <path d="M0 540 L1369 540" stroke-width="13" />
                  <path d="M0 720 L1369 720" stroke-width="13" />
                  <path d="M0 900 L1369 900" stroke-width="13" />
                  <g id="hfijsi3" class="clef">
                     <use href="#E062-ldfp6s4" transform="translate(88, 360) scale(0.72, 0.72)" />
                  </g>
                  <g id="i1uv1v8d" class="keySig" />
                  <g id="lh7ph5y" class="layer">
                     <g id="m16ml9hu" class="note" color="#29B6F6" fill="#29B6F6">
                        <g class="notehead">
                           <use href="#E0A2-ldfp6s4" transform="translate(859, 180) scale(0.72, 0.72)" />
                        </g>
                     </g>
                     <g id="nbk94ji" class="space" />
                  </g>
               </g>
               <g id="j15ywh2p" class="barLine" />
            </g>
            <g id="v1en4zhm" class="systemMilestoneEnd a1xc9kz3" />
         </g>
         <g id="wjd2k4q" class="pageMilestoneEnd n3bo9on" />
         <g id="x1156kwg" class="pageMilestoneEnd mm71od5" />
      </g>
   </svg>
</svg>
